<svg xmlns="http://www.w3.org/2000/svg" xmlns:xlink="http://www.w3.org/1999/xlink" width="500" zoomAndPan="magnify" viewBox="0 0 375 374.999991" height="500" preserveAspectRatio="xMidYMid meet" version="1.0"><path fill="#b6ccd7" d="M 305.972656 248.632812 L 287.683594 248.632812 L 293.847656 224.765625 L 293.847656 224.574219 L 302.125 193.578125 L 302.316406 192.617188 L 317.90625 133.328125 L 336.007812 73.066406 C 341.941406 80.757812 347.292969 88.929688 351.992188 97.503906 Z M 47.820312 170.089844 L 70.539062 170.089844 L 70.539062 130.246094 L 47.820312 130.246094 Z M 251.488281 130.238281 L 229.15625 209.167969 L 237.4375 240.351562 L 259.386719 162.003906 L 281.523438 239.964844 L 289.613281 209.167969 L 267.464844 130.238281 Z M 47.820312 248.632812 L 70.539062 248.632812 L 70.539062 207.628906 L 47.820312 207.628906 Z M 357.660156 108.691406 C 368.769531 132.652344 374.976562 159.34375 374.976562 187.492188 C 374.976562 291.035156 291.035156 374.976562 187.492188 374.976562 C 83.941406 374.976562 0 291.035156 0 187.484375 C 0 83.933594 83.941406 0 187.484375 0 C 244.769531 0 296.054688 25.695312 330.449219 66.1875 L 294.609375 190.492188 L 293.648438 193.769531 L 273.625 122.15625 L 245.328125 122.15625 L 225.113281 193.769531 L 223.957031 189.914062 L 206.242188 122.148438 L 165.238281 122.148438 L 203.933594 247.277344 L 206.820312 256.710938 L 215.289062 256.710938 L 212.785156 248.625 L 211.625 244.769531 L 176.207031 130.230469 L 199.882812 130.230469 L 216.25 192.023438 L 224.910156 224.558594 L 231.261719 248.625 L 233.378906 256.710938 L 241.265625 256.710938 L 241.457031 255.753906 L 259.363281 191.839844 L 277.265625 255.5625 L 277.65625 256.71875 L 311.917969 256.71875 L 350.226562 133.320312 Z M 155.621094 122.15625 L 116.542969 122.15625 L 116.542969 170.089844 L 78.816406 170.089844 L 78.816406 122.15625 L 39.738281 122.15625 L 39.738281 178.179688 L 124.632812 178.179688 L 124.632812 130.246094 L 147.351562 130.246094 L 147.351562 248.640625 L 124.632812 248.640625 L 124.632812 199.359375 L 39.738281 199.359375 L 39.738281 256.726562 L 78.816406 256.726562 L 78.816406 207.445312 L 116.542969 207.445312 L 116.542969 256.726562 L 155.621094 256.726562 Z M 155.621094 122.15625 " fill-opacity="1" fill-rule="nonzero"/></svg>